#N canvas 618 148 591 314 10;
#X obj 36 95 bng 24 250 50 0 \$0-loopRecord empty REC 4 12 0 10 -1
-260097 -4034;
#X obj 86 95 bng 24 250 50 0 \$0-loopOnce empty 1x 7 12 0 10 -1 -260097
-4034;
#X obj 36 70 bng 24 250 50 0 \$0-loopUndo empty UNDO 1 12 0 10 -1 -260097
-4034;
#X obj 61 95 tgl 24 0 \$0-loopPlayStop \$0-loopPlayStopIn P/S 4 12
0 10 -1 -260097 -4034 0 127;
#X obj 230 104 r \$0-loopRecord;
#X obj 329 104 r \$0-loopPlayStop;
#X obj 439 104 r \$0-loopOnce;
#X obj 231 60 r \$0-loopUndo;
#X obj 330 60 r \$0-loopHalf;
#X obj 439 60 r \$0-loopReverse;
#X obj 335 202 ctlout 50 8;
#X obj 86 70 tgl 24 0 \$0-loopReverse empty REV 4 12 0 10 -1 -260097
-4034 0 127;
#X obj 61 70 tgl 24 0 \$0-loopHalf \$0-loopHalfIn 1/2 4 12 0 10 -1
-260097 -4034 0 127;
#X floatatom 111 140 5 0 16 0 MIDI_Channel - m9MidiChannel;
#X obj 398 175 r m9MidiChannel;
#X msg 230 126 127 50;
#X msg 439 126 127 80;
#X msg 231 82 127 82;
#X msg 330 82 \$1 36;
#X msg 329 126 \$1 28;
#X msg 439 82 \$1 85;
#X connect 4 0 15 0;
#X connect 5 0 19 0;
#X connect 6 0 16 0;
#X connect 7 0 17 0;
#X connect 8 0 18 0;
#X connect 9 0 20 0;
#X connect 14 0 10 2;
#X connect 15 0 10 0;
#X connect 16 0 10 0;
#X connect 17 0 10 0;
#X connect 18 0 10 0;
#X connect 19 0 10 0;
#X connect 20 0 10 0;
