#N canvas 931 313 540 246 10;
#X obj 80 77 tgl 24 0 empty m9Pdl1 empty 17 7 0 10 -1 -260097 -257985
0 127;
#X obj 106 77 tgl 24 0 empty m9Pdl2 empty 17 7 0 10 -1 -260097 -257985
127 127;
#X obj 132 77 tgl 24 0 empty m9Pdl3 empty 17 7 0 10 -1 -260097 -257985
0 127;
#X obj 80 51 tgl 24 0 empty m9Pdl4 empty 17 7 0 10 -1 -260097 -257985
127 127;
#X obj 106 51 tgl 24 0 empty m9Pdl5 empty 17 7 0 10 -1 -260097 -257985
0 127;
#X obj 132 51 tgl 24 0 empty m9Pdl6 empty 17 7 0 10 -1 -260097 -257985
0 127;
#X obj 79 180 s m9Pdl1;
#X obj 146 115 ctlin 12 8;
#X obj 79 115 ctlin 11 8;
#X obj 146 180 s m9Pdl4;
#X obj 229 115 ctlin 14 8;
#X obj 229 180 s m9Pdl2;
#X obj 296 115 ctlin 15 8;
#X obj 296 180 s m9Pdl5;
#X obj 364 115 ctlin 17 8;
#X obj 431 115 ctlin 18 8;
#X obj 364 180 s m9Pdl3;
#X obj 431 180 s m9Pdl6;
#X obj 158 77 m9_tapIn;
#X msg 90 158 0;
#X msg 155 158 0;
#X obj 155 136 sel 127;
#X obj 90 136 sel 127;
#X msg 237 158 0;
#X msg 304 158 0;
#X obj 304 136 sel 127;
#X obj 237 136 sel 127;
#X msg 370 158 0;
#X msg 437 158 0;
#X obj 437 136 sel 127;
#X obj 370 136 sel 127;
#X connect 7 0 9 0;
#X connect 7 0 21 0;
#X connect 8 0 6 0;
#X connect 8 0 22 0;
#X connect 10 0 11 0;
#X connect 10 0 26 0;
#X connect 12 0 13 0;
#X connect 12 0 25 0;
#X connect 14 0 16 0;
#X connect 14 0 30 0;
#X connect 15 0 17 0;
#X connect 15 0 29 0;
#X connect 19 0 9 0;
#X connect 20 0 6 0;
#X connect 21 0 20 0;
#X connect 22 0 19 0;
#X connect 23 0 13 0;
#X connect 24 0 11 0;
#X connect 25 0 24 0;
#X connect 26 0 23 0;
#X connect 27 0 17 0;
#X connect 28 0 16 0;
#X connect 29 0 28 0;
#X connect 30 0 27 0;
#X coords 0 -1 1 1 102 52 2 80 50;
